{
    "asset" : {
        "generator" : "Khronos glTF Blender I/O v1.5.13",
        "version" : "2.0"
    },
    "scene" : 0,
    "scenes" : [
        {
            "name" : "Scene",
            "nodes" : [
                0
            ]
        }
    ],
    "nodes" : [
        {
            "mesh" : 0,
            "name" : "\u6210\u90fd\u5e02\u5e02\u7ea7\u673a\u5173\u7b2c\u516d\u529e\u516c\u533a_T",
            "rotation" : [
                0,
                -0.0006496901041828096,
                0,
                1
            ],
            "scale" : [
                0.7940026521682739,
                0.7940024733543396,
                0.7940026521682739
            ]
        }
    ],
    "materials" : [
        {
            "doubleSided" : true,
            "emissiveFactor" : [
                1,
                1,
                1
            ],
            "emissiveTexture" : {
                "index" : 0
            },
            "name" : "\u5efa\u7b51\u8d34\u56fe-\u7279\u6b8a_\u6761\u7eb9\u683c\u5b50.001",
            "pbrMetallicRoughness" : {
                "baseColorTexture" : {
                    "index" : 1
                },
                "metallicRoughnessTexture" : {
                    "index" : 2
                }
            }
        }
    ],
    "meshes" : [
        {
            "name" : "Plane.020",
            "primitives" : [
                {
                    "attributes" : {
                        "POSITION" : 0,
                        "NORMAL" : 1,
                        "TEXCOORD_0" : 2,
                        "TEXCOORD_1" : 3
                    },
                    "indices" : 4,
                    "material" : 0
                }
            ]
        }
    ],
    "textures" : [
        {
            "sampler" : 0,
            "source" : 0
        },
        {
            "sampler" : 0,
            "source" : 1
        },
        {
            "sampler" : 0,
            "source" : 2
        }
    ],
    "images" : [
        {
            "mimeType" : "image/png",
            "name" : "Map_\u6761\u7eb9_\u683c\u5b50\u706f\u5149",
            "uri" : "Textures/Map_%E6%9D%A1%E7%BA%B9_%E6%A0%BC%E5%AD%90%E7%81%AF%E5%85%89.png"
        },
        {
            "mimeType" : "image/png",
            "name" : "BaseColor",
            "uri" : "Textures/BaseColor.png"
        },
        {
            "mimeType" : "image/png",
            "name" : "Map_\u6761\u7eb9_\u683c\u5b50_Grayscale_02",
            "uri" : "Textures/Map_%E6%9D%A1%E7%BA%B9_%E6%A0%BC%E5%AD%90_Grayscale_02.png"
        }
    ],
    "accessors" : [
        {
            "bufferView" : 0,
            "componentType" : 5126,
            "count" : 4423,
            "max" : [
                1.2416582107543945,
                2.50154447555542,
                1.0247478485107422
            ],
            "min" : [
                -1.210397720336914,
                0.0007466599345207214,
                -1.2077503204345703
            ],
            "type" : "VEC3"
        },
        {
            "bufferView" : 1,
            "componentType" : 5126,
            "count" : 4423,
            "type" : "VEC3"
        },
        {
            "bufferView" : 2,
            "componentType" : 5126,
            "count" : 4423,
            "type" : "VEC2"
        },
        {
            "bufferView" : 3,
            "componentType" : 5126,
            "count" : 4423,
            "type" : "VEC2"
        },
        {
            "bufferView" : 4,
            "componentType" : 5123,
            "count" : 7134,
            "type" : "SCALAR"
        }
    ],
    "bufferViews" : [
        {
            "buffer" : 0,
            "byteLength" : 53076,
            "byteOffset" : 0
        },
        {
            "buffer" : 0,
            "byteLength" : 53076,
            "byteOffset" : 53076
        },
        {
            "buffer" : 0,
            "byteLength" : 35384,
            "byteOffset" : 106152
        },
        {
            "buffer" : 0,
            "byteLength" : 35384,
            "byteOffset" : 141536
        },
        {
            "buffer" : 0,
            "byteLength" : 14268,
            "byteOffset" : 176920
        }
    ],
    "samplers" : [
        {
            "magFilter" : 9729,
            "minFilter" : 9987
        }
    ],
    "buffers" : [
        {
            "byteLength" : 191188,
            "uri" : "\u6210\u90fd\u5e02\u5e02\u7ea7\u673a\u5173\u7b2c\u516d\u529e\u516c\u533a_T.bin"
        }
    ]
}
